<?xml version="1.0" ?><!DOCTYPE svg  PUBLIC '-//W3C//DTD SVG 1.1//EN'  'http://www.w3.org/Graphics/SVG/1.1/DTD/svg11.dtd'><svg height="512px" style="enable-background:new 0 0 512 512;" version="1.1" viewBox="0 0 512 512" width="512px" xml:space="preserve" xmlns="http://www.w3.org/2000/svg" xmlns:xlink="http://www.w3.org/1999/xlink"><g id="_x36_80_x2C__Architecture_x2C__bank_x2C__banking_x2C__building_x2C__federal"><g><path d="M118.438,152.046c1.39-0.313,2.517-0.97,3.383-1.993    s1.313-2.204,1.313-3.594c0-1.234-0.369-2.31-1.102-3.203c-0.737-0.891-1.944-1.573-3.594-2.045V152.046z M114.395,122.529    c-1.102,0.393-1.94,1.023-2.569,1.916c-0.632,0.892-0.947,1.861-0.947,2.938c0,0.971,0.291,1.891,0.867,2.729    c0.579,0.841,1.47,1.497,2.649,2.021V122.529z M114.395,151.6v-11.597c-3.594-1.022-6.243-2.597-7.924-4.669    c-1.678-2.1-2.516-4.645-2.516-7.635c0-3.019,0.944-5.563,2.86-7.611c1.888-2.072,4.408-3.253,7.581-3.566v-2.703h4.043v2.703    c2.938,0.366,5.271,1.363,7.03,3.016c1.733,1.653,2.86,3.857,3.334,6.639l-7.033,0.893c-0.446-2.15-1.548-3.647-3.331-4.407v10.81    c4.433,1.18,7.476,2.754,9.076,4.645c1.628,1.914,2.415,4.355,2.415,7.346c0,3.332-0.997,6.139-3.043,8.449    c-2.021,2.282-4.829,3.698-8.447,4.25v5.169h-4.043v-5.091c-3.172-0.393-5.745-1.574-7.767-3.541    c-1.993-1.969-3.253-4.776-3.804-8.37l7.216-0.866c0.288,1.47,0.839,2.754,1.653,3.804    C112.507,150.34,113.398,151.102,114.395,151.6z M149.343,379.685V267.623h-17.081v112.062H149.343z M128.956,261.168h0.081    h23.535h0.078h15.771h0.077h4.04v-10.573h-63.441v10.573h4.015h0.077H128.956z M125.808,379.685V267.623h-9.392v112.062H125.808z     M155.8,267.623v112.062h9.392V267.623H155.8z M271.087,379.685V267.623h-17.08v112.062H271.087z M250.672,261.168h0.105h23.535    h0.081h15.768h0.077h4.043v-10.573h-63.469v10.573h4.039h0.081H250.672z M247.553,379.685V267.623h-9.395v112.062H247.553z     M277.541,267.623v112.062h9.392V267.623H277.541z M392.828,379.685V267.623h-17.105v112.062H392.828z M372.417,261.168h0.077    h23.563h0.078h15.743h0.077h4.043v-10.573h-63.445v10.573h4.043h0.078H372.417z M369.27,379.685V267.623h-9.367v112.062H369.27z     M399.282,267.623v112.062h9.367V267.623H399.282z M143.991,110.959c-7.058-7.059-16.842-11.439-27.602-11.439    c-10.781,0-20.569,4.381-27.627,11.412c-7.058,7.084-11.441,16.871-11.441,27.629c0,10.783,4.383,20.545,11.441,27.629    c7.058,7.058,16.846,11.439,27.627,11.439c10.76,0,20.544-4.382,27.602-11.439c7.058-7.06,11.441-16.846,11.441-27.629    C155.432,127.775,151.048,118.016,143.991,110.959z M161.019,148.637c-1.913,8.605-6.268,16.266-12.28,22.301    c-8.265,8.266-19.73,13.408-32.351,13.408c-7.686,0-14.954-1.916-21.331-5.275l-43.135,19.889h418.624L260.59,102.746    L161.019,148.637z M274.313,138.297c-3.331-3.332-7.949-5.404-13.038-5.404c-5.092,0-9.682,2.047-13.041,5.379    c-3.331,3.358-5.38,7.95-5.38,13.041c0,5.089,2.049,9.707,5.38,13.039c3.334,3.332,7.949,5.405,13.041,5.405    c5.117,0,9.707-2.073,13.038-5.378c3.334-3.359,5.404-7.951,5.404-13.066C279.717,146.222,277.646,141.63,274.313,138.297z     M261.274,126.439c6.872,0,13.091,2.781,17.604,7.294c4.489,4.487,7.297,10.704,7.297,17.579c0,6.873-2.808,13.066-7.297,17.579    c-4.537,4.54-10.756,7.319-17.604,7.319c-6.875,0-13.094-2.807-17.579-7.293c-4.513-4.514-7.296-10.732-7.296-17.605    c0-6.849,2.783-13.068,7.296-17.579C248.209,129.221,254.424,126.439,261.274,126.439z M88.657,402.275H433.89v-16.137h-21.935    h-0.077h-15.743h-0.078h-23.563h-0.077h-15.743h-0.078h-66.357h-0.077h-15.768h-0.081h-23.535h-0.105h-15.74h-0.081h-66.354    h-0.077h-15.771h-0.078h-23.535h-0.081h-15.768h-0.077H88.657V402.275z M300.707,250.595v13.801c0,1.784-1.442,3.228-3.225,3.228    h-4.093v112.062h60.056V267.623h-4.117c-1.786,0-3.229-1.443-3.229-3.228v-13.801H300.707z M178.991,250.595v13.801    c0,1.784-1.467,3.228-3.226,3.228h-4.12v112.062h60.058V267.623h-4.12c-1.783,0-3.225-1.443-3.225-3.228v-13.801H178.991z     M105.765,244.141h0.102h69.898h0.077h51.664h0.077h69.899h0.104h51.661h0.08h69.896h0.08h30.751v-20.99H251.094    c-1.783,0-3.229-1.442-3.229-3.227c0-1.759,1.446-3.228,3.229-3.228h198.961v-11.283H72.495v38.728H105.765z M150.918,223.15    c-1.783,0-3.229-1.442-3.229-3.227c0-1.759,1.446-3.228,3.229-3.228h45.234c1.783,0,3.226,1.469,3.226,3.228    c0,1.784-1.442,3.227-3.226,3.227H150.918z M180.409,188.569c1.208,0,2.492-0.788,2.889-1.812c1.074-2.15-0.551-4.643-2.889-4.643    h-6.454c-1.232,0-2.492,0.813-2.913,1.809c-1.049,2.154,0.579,4.646,2.913,4.646H180.409z M206.176,188.569    c1.231,0,2.492-0.788,2.913-1.812c1.074-2.15-0.579-4.643-2.913-4.643h-6.43c-1.232,0-2.492,0.813-2.913,1.809    c-1.074,2.154,0.579,4.646,2.913,4.646H206.176z M231.967,188.569c1.232,0,2.492-0.788,2.913-1.812    c1.074-2.15-0.579-4.643-2.913-4.643h-6.429c-1.232,0-2.492,0.813-2.913,1.809c-1.074,2.154,0.579,4.646,2.913,4.646H231.967z     M257.758,188.569c1.232,0,2.492-0.788,2.913-1.812c1.05-2.15-0.579-4.643-2.913-4.643h-6.454c-1.207,0-2.467,0.813-2.888,1.809    c-1.074,2.154,0.551,4.646,2.888,4.646H257.758z M283.55,188.569c1.207,0,2.491-0.788,2.885-1.812    c1.077-2.15-0.552-4.643-2.885-4.643h-6.454c-1.208,0-2.492,0.813-2.889,1.809c-1.074,2.154,0.551,4.646,2.889,4.646H283.55z     M309.341,188.569c1.208,0,2.491-0.788,2.885-1.812c1.077-2.15-0.551-4.643-2.885-4.643h-6.454c-1.207,0-2.492,0.813-2.885,1.809    c-1.077,2.154,0.551,4.646,2.885,4.646H309.341z M335.133,188.569c1.207,0,2.491-0.788,2.885-1.812    c1.077-2.15-0.552-4.643-2.885-4.643h-6.455c-1.231,0-2.491,0.813-2.912,1.809c-1.05,2.154,0.578,4.646,2.912,4.646H335.133z     M360.924,188.569c1.207,0,2.467-0.788,2.889-1.812c1.073-2.15-0.58-4.643-2.889-4.643h-6.454c-1.231,0-2.491,0.813-2.913,1.809    c-1.074,2.154,0.579,4.646,2.913,4.646H360.924z M148.164,182.115c-1.207,0-2.492,0.813-2.885,1.809    c-1.078,2.154,0.551,4.646,2.885,4.646h6.454c1.207,0,2.492-0.788,2.885-1.812c1.077-2.15-0.551-4.643-2.885-4.643H148.164z     M52.631,445.934c-1.783,0-3.225-1.442-3.225-3.201c0-1.784,1.442-3.227,3.225-3.227h299.764c1.786,0,3.229,1.442,3.229,3.227    c0,1.759-1.442,3.201-3.229,3.201H52.631z M228.163,458.318c-1.758,0-3.229-1.444-3.229-3.227c0-1.785,1.47-3.229,3.229-3.229    h207.433c1.786,0,3.229,1.444,3.229,3.229c0,1.782-1.442,3.227-3.229,3.227H228.163z M456.849,458.318    c-1.782,0-3.229-1.444-3.229-3.227c0-1.785,1.446-3.229,3.229-3.229h25.921c1.787,0,3.229,1.444,3.229,3.229    c0,1.782-1.442,3.227-3.229,3.227H456.849z M29.23,457.95c-1.786,0-3.229-1.442-3.229-3.228c0-1.782,1.442-3.227,3.229-3.227    h98.284c1.786,0,3.229,1.444,3.229,3.227c0,1.785-1.442,3.228-3.229,3.228H29.23z M95.742,56.883c0-1.757,1.467-3.201,3.225-3.201    c1.787,0,3.229,1.444,3.229,3.201v23.563c0,1.783-1.442,3.227-3.229,3.227c-1.758,0-3.225-1.443-3.225-3.227V56.883z     M113.164,56.883c0-1.757,1.442-3.201,3.225-3.201c1.786,0,3.229,1.444,3.229,3.201v23.563c0,1.783-1.442,3.227-3.229,3.227    c-1.783,0-3.225-1.443-3.225-3.227V56.883z M130.557,56.883c0-1.757,1.446-3.201,3.229-3.201s3.229,1.444,3.229,3.201v23.563    c0,1.783-1.446,3.227-3.229,3.227s-3.229-1.443-3.229-3.227V56.883z M60.819,424.865h400.936v-16.136h-24.56H85.351H60.819    V424.865z" style="fill-rule:evenodd;clip-rule:evenodd;"/></g></g><g id="Layer_1"/></svg>