<?xml version="1.0" encoding="utf-8"?>
<!-- Svg Vector Icons : http://www.onlinewebfonts.com/icon -->
<!DOCTYPE svg PUBLIC "-//W3C//DTD SVG 1.1//EN" "http://www.w3.org/Graphics/SVG/1.1/DTD/svg11.dtd">
<svg version="1.1" xmlns="http://www.w3.org/2000/svg" xmlns:xlink="http://www.w3.org/1999/xlink" x="0px" y="0px" viewBox="0 0 1000 1000" enable-background="new 0 0 1000 1000" xml:space="preserve">
<metadata> Svg Vector Icons : http://www.onlinewebfonts.com/icon </metadata>
<g><path d="M977.5,242.8c-2.5-2.9-5.1-5.8-8-8.2c-7.6-6.4-15.8-12-24.9-16.4C811.1,152.7,677.7,86.9,544.1,21.4c-11.5-5.6-23.6-9.7-36.5-11.3c-4.1,0-8.3,0-12.4,0c-31,5.7-57.7,22.1-85.3,35.6C288.9,104.3,168,163.2,47.4,222.6c-18.7,9.3-33.3,24-36.6,46.4c-0.1,0.8-0.5,1.5-0.7,2.2c0,3.2,0,6.4,0,9.5c2,10.3,5.2,20,12.2,28.2c2.4,2.7,4.7,5.7,7.5,8c7.4,5.9,14.8,11.7,23.5,15.9c134.5,66,268.8,132.4,403.5,198.2c11.4,5.6,23.1,11.1,36.2,12.3c13.3,1.2,25.8-1,37.6-6.8C666.5,470,802.5,403.5,938.6,336.8c4.6-2.3,9.3-4.2,13.7-6.9c12.7-7.6,24.7-16.5,31.4-30.2c2.9-5.9,4.2-12.5,6.3-18.9c0-3.2,0-6.4,0-9.5C987.8,260.9,984.5,251,977.5,242.8z"/><path d="M931.6,441.8c-14.6-2.5-28.9-1.1-42.4,5.6c-25.9,12.9-51.5,26.3-77.6,38.8c-102.3,49.1-204.8,98-307.2,147.1c-2.9,1.4-5.3,1.6-8.4,0.1c-125.4-60.8-250.8-121.5-376.2-182.3c-21-10.2-43.3-13.3-66-9c-23.3,4.4-39.5,23.7-42.8,48.2c-0.2,1.3-0.7,2.7-1,4c0,4.1,0,8.3,0,12.4c2,10.1,5.2,19.6,11.8,27.8c6.3,7.7,13.6,14,22.4,18.4C182,621.2,319.9,689.6,457.8,757.5c11,5.4,22.5,10.8,35.3,11.8c12.9,1,25.2-1.1,36.7-6.6C671.6,694.9,813.3,627.2,954.8,559c19-9.1,29.8-25.3,34.1-45.8c0.4-1.5,0.7-3.1,1.1-4.6c0-3.9,0-7.6,0-11.5c-1.3-4.2-2.2-8.6-3.9-12.6C976.1,459.9,957.3,446.4,931.6,441.8z"/><path d="M931.5,662c-14.6-2.5-28.9-1.1-42.4,5.6c-26.2,13-52.2,26.5-78.5,39.3c-101.8,48.9-203.7,97.4-305.5,146.3c-3.7,1.7-6.6,1.6-10.1-0.1c-124.6-60.5-249.4-120.9-374.1-181.4c-19.3-9.3-39.5-12.1-60.4-10.5c-24.3,1.8-43.1,19.5-48.3,44.2c-0.7,3.1-1.4,6.1-2.1,9.1c0,4.1,0,8.3,0,12.4c2,9.9,5.1,19.3,11.5,27.4c6.4,8,14,14.5,23.1,19c137.6,68.2,275.2,136.5,413,204.3c11.8,5.8,24.1,11.2,37.6,12.4c3.2,0,6.4,0,9.5,0c11-1.8,21.4-5.2,31.5-10.3c12.9-6.5,26.6-11.8,39.7-18c125.8-60.4,251.5-121,377-181.5c19.9-9.6,31.5-25.8,35.9-47.2c0.3-1.4,0.7-2.7,1-4.1c0-3.9,0-7.6,0-11.5c-1.3-4.2-2.2-8.6-3.9-12.6C976.1,680,957.2,666.5,931.5,662z"/></g>
</svg>